<?xml version="1.0" standalone="no"?>
<!DOCTYPE svg PUBLIC "-//W3C//DTD SVG 20010904//EN"
 "http://www.w3.org/TR/2001/REC-SVG-20010904/DTD/svg10.dtd">
<svg version="1.0" xmlns="http://www.w3.org/2000/svg"
 width="500.000000pt" height="500.000000pt" viewBox="0 0 500.000000 500.000000"
 preserveAspectRatio="xMidYMid meet">

<g transform="translate(0.000000,500.000000) scale(0.100000,-0.100000)"
fill="#000000" stroke="none">
<path d="M1530 2500 l0 -981 338 3 337 3 55 26 c95 45 157 123 197 249 29 90
42 260 43 540 l0 275 50 -3 50 -4 0 -135 0 -134 28 3 27 3 3 133 3 132 45 0
c44 0 45 1 42 28 l-3 27 -108 3 c-68 2 -113 -1 -121 -7 -11 -9 -15 32 -19 226
-3 131 -10 260 -16 286 -29 131 -99 224 -206 274 l-60 28 -342 3 -343 3 0
-981z m532 629 c37 -20 42 -50 46 -261 l4 -208 39 0 c35 0 39 -3 39 -25 0 -23
-4 -25 -41 -25 l-40 0 3 -42 c2 -25 8 -44 16 -44 6 -1 24 -2 38 -3 20 -1 25
-5 22 -23 -2 -19 -10 -24 -40 -26 -37 -3 -38 -4 -38 -42 0 -39 0 -39 43 -42
37 -3 42 -6 42 -28 0 -22 -5 -25 -42 -28 l-43 -3 0 -182 c0 -263 -11 -287
-127 -287 l-63 0 0 234 c0 188 -3 235 -14 239 -11 5 -96 122 -96 133 0 3 -16
27 -35 55 l-35 51 0 -121 0 -121 -25 0 c-33 0 -36 17 -33 185 l3 140 28 3 c34
4 52 -9 78 -57 11 -20 40 -67 64 -106 l45 -69 0 117 c0 71 4 117 10 117 6 0
10 86 10 238 0 131 3 242 8 246 9 9 110 -2 134 -15z m388 -493 c0 -22 -5 -25
-42 -28 l-43 -3 -5 -135 -5 -135 -25 0 -25 0 -5 135 -5 135 -42 3 c-38 3 -43
6 -43 28 l0 24 120 0 120 0 0 -24z m-820 -251 c6 -8 10 -22 8 -32 -4 -24 -47
-24 -62 0 -9 15 -7 21 8 33 25 18 31 18 46 -1z"/>
<path d="M3040 2655 c0 -21 5 -25 30 -25 25 0 30 4 30 25 0 21 -5 25 -30 25
-25 0 -30 -4 -30 -25z"/>
<path d="M2770 2506 l0 -167 33 3 c32 3 32 3 35 66 4 83 23 83 77 -1 39 -60
60 -75 91 -63 12 5 7 18 -25 64 -23 32 -41 62 -41 66 0 4 11 21 25 38 27 32
31 63 14 101 -15 34 -47 46 -135 54 l-74 6 0 -167z m150 85 c5 -11 10 -24 10
-30 0 -19 -32 -41 -61 -41 -28 0 -29 2 -29 45 0 45 0 45 35 45 24 0 37 -6 45
-19z"/>
<path d="M3154 2657 c-2 -7 -3 -80 -2 -162 l3 -150 45 -3 c77 -6 131 7 162 38
35 36 36 73 3 106 l-25 25 20 26 c44 56 15 107 -69 123 -74 14 -131 13 -137
-3z m154 -76 c5 -30 -20 -51 -60 -51 -26 0 -28 3 -28 41 l0 40 43 -3 c36 -3
42 -6 45 -27z m-8 -109 c18 -14 21 -25 17 -44 -7 -26 -30 -38 -74 -38 -21 0
-23 5 -23 50 0 48 1 50 29 50 16 0 39 -8 51 -18z"/>
<path d="M3437 2664 c-4 -4 -7 -79 -7 -166 l0 -158 90 0 c89 0 90 0 90 25 0
22 -4 24 -57 27 l-58 3 0 45 0 45 53 3 c44 3 52 6 52 23 0 16 -7 19 -39 19
-59 0 -71 8 -71 46 l0 34 61 0 c60 0 60 0 57 28 -3 27 -4 27 -83 30 -45 1 -84
0 -88 -4z"/>
<path d="M3040 2465 l0 -125 30 0 30 0 0 125 0 125 -30 0 -30 0 0 -125z"/>
</g>
</svg>
