<?xml version="1.0" standalone="no"?>
<!DOCTYPE svg PUBLIC "-//W3C//DTD SVG 20010904//EN"
 "http://www.w3.org/TR/2001/REC-SVG-20010904/DTD/svg10.dtd">
<svg version="1.0" xmlns="http://www.w3.org/2000/svg"
 width="500.000000pt" height="500.000000pt" viewBox="0 0 500.000000 500.000000"
 preserveAspectRatio="xMidYMid meet">

<g transform="translate(0.000000,500.000000) scale(0.100000,-0.100000)"
fill="#000000" stroke="none">
<path d="M1530 2500 l0 -981 343 3 c233 2 348 7 358 14 8 6 26 14 40 17 32 8
122 95 140 137 8 16 17 30 21 30 4 0 10 17 14 38 4 20 11 40 16 43 5 3 12 38
15 78 3 39 10 74 14 77 12 7 12 1174 0 1174 -4 0 -11 25 -14 56 -3 31 -11 62
-16 67 -6 6 -11 19 -11 29 0 26 -130 156 -165 164 -16 4 -33 12 -37 18 -5 8
-119 12 -363 14 l-355 3 0 -981z m527 634 c35 -10 42 -48 49 -296 l5 -178 39
0 c21 0 42 -5 45 -10 5 -8 11 -8 20 0 8 7 54 10 121 8 101 -3 109 -4 109 -23
0 -16 -8 -21 -42 -23 l-43 -3 0 -133 0 -134 -25 -4 c-13 -3 -27 -3 -30 0 -3 3
-5 65 -5 139 l0 133 -45 0 c-28 0 -45 4 -45 12 0 9 -3 9 -12 0 -7 -7 -29 -12
-49 -12 -32 0 -37 -3 -41 -27 -7 -51 1 -63 38 -63 30 0 34 -3 34 -25 0 -22 -4
-25 -34 -25 -31 0 -34 -3 -39 -37 -4 -20 -4 -40 -1 -45 3 -4 25 -8 50 -8 37 0
44 -3 44 -19 0 -16 -8 -20 -42 -23 l-43 -3 -6 -190 c-4 -104 -9 -203 -12 -220
-9 -47 -40 -65 -113 -65 l-64 0 0 235 c0 190 -3 237 -14 241 -7 3 -47 58 -87
122 l-74 117 -3 -117 -3 -118 -24 0 -25 0 0 161 0 160 32 -3 c28 -3 38 -14
102 -117 l71 -114 3 109 c1 60 7 113 12 118 6 6 10 109 10 248 l0 238 58 0
c31 0 67 -3 79 -6z m-422 -768 c0 -30 -31 -44 -51 -24 -15 14 -15 20 -4 33 18
21 55 15 55 -9z"/>
</g>
</svg>
